<?xml version="1.0" encoding="UTF-8" standalone="no"?>
<!DOCTYPE svg PUBLIC "-//W3C//DTD SVG 1.1//EN" "http://www.w3.org/Graphics/SVG/1.1/DTD/svg11.dtd">
<svg width="100%" height="100%" viewBox="0 0 26 290" version="1.1" xmlns="http://www.w3.org/2000/svg" xmlns:xlink="http://www.w3.org/1999/xlink" xml:space="preserve" xmlns:serif="http://www.serif.com/" style="fill-rule:evenodd;clip-rule:evenodd;stroke-linejoin:round;stroke-miterlimit:2;">
    <g transform="matrix(-0.554159,0.55069,-0.55069,-0.554159,456.643,146.106)">
        <g>
            <path d="M508.1,292.7L514.7,299L507.1,307.8L498.7,316.4L489.8,324.4L481.3,332.8L474.7,339.6L473,341.4L464.3,349.6L455.8,358L447.5,366.6L443,371.7L439.6,375.6L432.1,382.6L430.9,383.8L421.9,391.8L414.7,400.7L414.3,401.1L405.7,409.4L401.8,413L396.9,417.5L388.2,425.7L383.6,431.2L380.5,434.9L372.1,443.4L363.3,451.5L358.9,455.7L354.6,459.8L346.9,467.1L345.9,468L337.9,476.9L335.2,479.5L329.2,485.1L322.3,491.9L320.7,493.5L312.9,502.6L309.2,505.7L303.6,510.4L286.6,527.2L278.8,535.6C278.6,535.3 278.3,535.2 278,534.9C277.7,534.6 278,534.9 277.6,534.8L276.4,533.5L276.3,533.4C275.7,532.8 275,531.9 274.7,531.2C274.5,530.4 273.2,529.7 273.2,529.7L267.8,524.3C267.8,524.3 267.3,523.7 266.2,523.1L265.5,522.4L269.8,517.9L273.5,514L281.9,505.5L288.5,498.7L291.2,496L298.5,488.2L306.8,479.6L310.7,476.4L316.1,472L320.2,467.1L323.8,462.8L325.4,461.4L332.8,454.9L336.7,450.4L340.7,445.9L346.1,441.1L349.6,438L358.4,429.8L366.7,421.2L374.5,412.1L383.3,404L391.6,395.4L393.4,393.8L400.7,387.6L404.5,383.1L408.4,378.4L417.3,370.4L425.7,361.8L433.9,353.1L442.5,344.8L444.9,342.6L451.4,336.7L460,328.3L468,319.3L476.3,310.7L485.1,302.6L487.7,300.2L493.9,294.5L501.9,286L508.1,292.7Z" style="fill:url(#_Linear1);fill-rule:nonzero;"/>
            <path d="M508.1,292.7L514.7,299L507.1,307.8L498.7,316.4L489.8,324.4L481.3,332.8L474.7,339.6L473,341.4L464.3,349.6L455.8,358L447.5,366.6L443,371.7L439.6,375.6L432.1,382.6L430.9,383.8L421.9,391.8L414.7,400.7L414.3,401.1L405.7,409.4L401.8,413L396.9,417.5L388.2,425.7L383.6,431.2L380.5,434.9L372.1,443.4L363.3,451.5L358.9,455.7L354.6,459.8L346.9,467.1L345.9,468L337.9,476.9L335.2,479.5L329.2,485.1L322.3,491.9L320.7,493.5L312.9,502.6L309.2,505.7L303.6,510.4L286.6,527.2L278.8,535.6C278.6,535.3 278.3,535.2 278,534.9C277.7,534.6 278,534.9 277.6,534.8L276.4,533.5L276.3,533.4C275.7,532.8 275,531.9 274.7,531.2C274.5,530.4 273.2,529.7 273.2,529.7L267.8,524.3C267.8,524.3 267.3,523.7 266.2,523.1L265.5,522.4L269.8,517.9L273.5,514L281.9,505.5L288.5,498.7L291.2,496L298.5,488.2L306.8,479.6L310.7,476.4L316.1,472L320.2,467.1L323.8,462.8L325.4,461.4L332.8,454.9L336.7,450.4L340.7,445.9L346.1,441.1L349.6,438L358.4,429.8L366.7,421.2L374.5,412.1L383.3,404L391.6,395.4L393.4,393.8L400.7,387.6L404.5,383.1L408.4,378.4L417.3,370.4L425.7,361.8L433.9,353.1L442.5,344.8L444.9,342.6L451.4,336.7L460,328.3L468,319.3L476.3,310.7L485.1,302.6L487.7,300.2L493.9,294.5L501.9,286L508.1,292.7Z" style="fill:url(#_Linear2);fill-rule:nonzero;"/>
            <g opacity="0.35">
                <path d="M401.7,412.9L397.3,417.9L388.6,426.1L383.4,431.1L388,425.6L396.8,417.4L401.7,412.9Z" style="fill:none;fill-rule:nonzero;"/>
                <path d="M508.1,292.7L514.7,299L512.8,301.2L506.5,307.2L498.5,316.1L489.7,324.2L481.1,332.5L474.7,339.5L473,341.3L464.3,349.5L455.8,357.9L447.5,366.5L443,371.6L439.2,375.1L432.1,382.5L430.9,383.7L422.2,391.9L414.7,400.5L414.3,400.9L405.3,408.8L401.8,412.8L396.9,417.3L388.2,425.5L383.6,431L380.1,434.3L371.6,442.7L362.9,450.9L358.9,455.5L355,460L346.9,466.9L345.9,467.8L337.8,476.6L335.2,479.3L329.5,485.3L322.3,491.7L320.6,493.2L312.5,502L309.3,505.5L303.7,510.2L286.7,527L278.9,535.4C278.7,535.1 278.4,535 278.1,534.7C277.8,534.4 278.1,534.7 277.7,534.6L276.5,533.3L276.4,533.2C275.8,532.6 275.1,531.7 274.8,531C274.6,530.2 273.3,529.5 273.3,529.5L267.9,524.1C267.9,524.1 267.4,523.5 266.3,522.9L265.6,522.2L269.9,517.7L274,514.2L282.3,505.6L288.7,498.6L290.4,496.7L291.3,495.8L299,488.4L307,479.5L310.8,476.2L316,471.6L320.2,466.8L323.9,462.6L325.4,461.1L332.8,454.6L336.7,450.1L341.2,446.1L346.1,440.7L349.6,437.6L358.4,429.4L366.7,420.8L368.5,418.7L375.4,412.6L383.4,403.7L391.8,395.2L393.5,393.5L400.8,387.3L404.6,382.8L409.2,378.8L417.7,370.4L425.9,361.7L434.2,353.1L442.7,344.7L444.9,342.3L451.4,336.4L460,328L460.8,327.1L468.1,319.1L476.5,310.6L485.3,302.5L487.6,299.8L493.8,294.1L501.8,285.6L508.1,292.7Z" style="fill:url(#_Linear3);fill-rule:nonzero;"/>
                <path d="M508.1,292.7L514.7,299L512.8,301.2L506.5,307.2L498.5,316.1L489.7,324.2L481.1,332.5L474.7,339.5L473,341.3L464.3,349.5L455.8,357.9L447.5,366.5L443,371.6L439.2,375.1L432.1,382.5L430.9,383.7L422.2,391.9L414.7,400.5L414.3,400.9L405.3,408.8L401.8,412.8L396.9,417.3L388.2,425.5L383.6,431L380.1,434.3L371.6,442.7L362.9,450.9L358.9,455.5L355,460L346.9,466.9L345.9,467.8L337.8,476.6L335.2,479.3L329.5,485.3L322.3,491.7L320.6,493.2L312.5,502L309.3,505.5L303.7,510.2L286.7,527L278.9,535.4C278.7,535.1 278.4,535 278.1,534.7C277.8,534.4 278.1,534.7 277.7,534.6L276.5,533.3L276.4,533.2C275.8,532.6 275.1,531.7 274.8,531C274.6,530.2 273.3,529.5 273.3,529.5L267.9,524.1C267.9,524.1 267.4,523.5 266.3,522.9L265.6,522.2L269.9,517.7L274,514.2L282.3,505.6L288.7,498.6L290.4,496.7L291.3,495.8L299,488.4L307,479.5L310.8,476.2L316,471.6L320.2,466.8L323.9,462.6L325.4,461.1L332.8,454.6L336.7,450.1L341.2,446.1L346.1,440.7L349.6,437.6L358.4,429.4L366.7,420.8L368.5,418.7L375.4,412.6L383.4,403.7L391.8,395.2L393.5,393.5L400.8,387.3L404.6,382.8L409.2,378.8L417.7,370.4L425.9,361.7L434.2,353.1L442.7,344.7L444.9,342.3L451.4,336.4L460,328L460.8,327.1L468.1,319.1L476.5,310.6L485.3,302.5L487.6,299.8L493.8,294.1L501.8,285.6L508.1,292.7Z" style="fill:url(#_Linear4);fill-rule:nonzero;"/>
            </g>
            <path d="M276.3,533.4C276.2,533.3 276.2,533.3 276.2,533.2C275.6,532.6 274.9,531.7 274.6,531C274.4,530.2 273.1,529.5 273.1,529.5L267.7,524.1C267.7,524.1 267.2,523.5 266.1,522.9" style="fill:none;fill-rule:nonzero;"/>
            <path d="M277.5,534.7C277.9,534.8 277.7,534.5 277.9,534.8C278.2,535.1 278.4,535.2 278.7,535.5" style="fill:none;fill-rule:nonzero;"/>
            <path d="M494.5,292.7L495.6,290.5L497.3,288.5C497.9,287.7 498.5,286.9 499,286.1C499.8,284.9 500.2,283.6 501.1,282.4C502.2,281 503,279.3 504.1,277.9C506.2,275.2 508.7,272.6 511.3,270.3C515.3,266.6 520.9,263.2 526.6,265.3C529.5,266.4 531.7,269.1 532.9,272C534,274.8 534.8,278.3 534.7,281.3C534.6,284 533.3,287.3 531.7,289.5L529.6,292.4L527,294.8L524.3,297L521.7,299.4L516.1,303.6L513.6,305.9L510.4,307.1L507.6,308.2L506,308.8L503.7,308.3L503.8,308.7L502.8,307.2L501.6,305.9L500.6,304.1L499.9,302.6L500,300.7L500.3,300.3L498.5,298.6L497.9,297.3L496.7,295.5L495.7,293.6L494.5,292.7Z" style="fill:url(#_Radial5);fill-rule:nonzero;"/>
        </g>
    </g>
    <defs>
        <linearGradient id="_Linear1" x1="0" y1="0" x2="1" y2="0" gradientUnits="userSpaceOnUse" gradientTransform="matrix(12.7773,13.8521,-13.8521,12.7773,385.097,405.384)"><stop offset="0" style="stop-color:rgb(239,218,164);stop-opacity:1"/><stop offset="0.16" style="stop-color:rgb(239,218,164);stop-opacity:1"/><stop offset="0.33" style="stop-color:rgb(214,165,57);stop-opacity:1"/><stop offset="0.55" style="stop-color:rgb(239,218,164);stop-opacity:1"/><stop offset="0.65" style="stop-color:rgb(239,218,164);stop-opacity:1"/><stop offset="0.85" style="stop-color:rgb(227,190,101);stop-opacity:1"/><stop offset="0.95" style="stop-color:rgb(239,218,164);stop-opacity:1"/><stop offset="1" style="stop-color:rgb(239,218,164);stop-opacity:1"/></linearGradient>
        <linearGradient id="_Linear2" x1="0" y1="0" x2="1" y2="0" gradientUnits="userSpaceOnUse" gradientTransform="matrix(11.1722,10.96,-10.96,11.1722,383.916,404.74)"><stop offset="0" style="stop-color:rgb(232,205,154);stop-opacity:1"/><stop offset="0.17" style="stop-color:rgb(185,143,91);stop-opacity:1"/><stop offset="0.28" style="stop-color:rgb(233,197,147);stop-opacity:1"/><stop offset="0.53" style="stop-color:rgb(191,149,94);stop-opacity:1"/><stop offset="0.67" style="stop-color:rgb(232,194,142);stop-opacity:1"/><stop offset="0.8" style="stop-color:rgb(233,197,147);stop-opacity:1"/><stop offset="0.94" style="stop-color:rgb(226,178,112);stop-opacity:1"/><stop offset="1" style="stop-color:rgb(226,178,112);stop-opacity:1"/></linearGradient>
        <linearGradient id="_Linear3" x1="0" y1="0" x2="1" y2="0" gradientUnits="userSpaceOnUse" gradientTransform="matrix(12.7773,13.8521,-13.8521,12.7773,385.097,405.384)"><stop offset="0" style="stop-color:rgb(239,218,164);stop-opacity:1"/><stop offset="0.16" style="stop-color:rgb(239,218,164);stop-opacity:1"/><stop offset="0.33" style="stop-color:rgb(214,165,57);stop-opacity:1"/><stop offset="0.55" style="stop-color:rgb(239,218,164);stop-opacity:1"/><stop offset="0.65" style="stop-color:rgb(239,218,164);stop-opacity:1"/><stop offset="0.85" style="stop-color:rgb(227,190,101);stop-opacity:1"/><stop offset="0.95" style="stop-color:rgb(239,218,164);stop-opacity:1"/><stop offset="1" style="stop-color:rgb(239,218,164);stop-opacity:1"/></linearGradient>
        <linearGradient id="_Linear4" x1="0" y1="0" x2="1" y2="0" gradientUnits="userSpaceOnUse" gradientTransform="matrix(10.9247,10.7267,-10.7267,10.9247,386.434,407.201)"><stop offset="0" style="stop-color:rgb(232,205,154);stop-opacity:1"/><stop offset="0.17" style="stop-color:rgb(185,143,91);stop-opacity:1"/><stop offset="0.28" style="stop-color:rgb(233,197,147);stop-opacity:1"/><stop offset="0.53" style="stop-color:rgb(191,149,94);stop-opacity:1"/><stop offset="0.67" style="stop-color:rgb(232,194,142);stop-opacity:1"/><stop offset="0.8" style="stop-color:rgb(233,197,147);stop-opacity:1"/><stop offset="0.94" style="stop-color:rgb(226,178,112);stop-opacity:1"/><stop offset="1" style="stop-color:rgb(226,178,112);stop-opacity:1"/></linearGradient>
        <radialGradient id="_Radial5" cx="0" cy="0" r="1" gradientUnits="userSpaceOnUse" gradientTransform="matrix(23.3909,-23.3909,11.7566,11.7566,513.275,288.82)"><stop offset="0" style="stop-color:rgb(218,39,54);stop-opacity:1"/><stop offset="0.43" style="stop-color:rgb(216,39,54);stop-opacity:1"/><stop offset="0.59" style="stop-color:rgb(209,38,53);stop-opacity:1"/><stop offset="0.7" style="stop-color:rgb(197,37,52);stop-opacity:1"/><stop offset="0.8" style="stop-color:rgb(180,36,51);stop-opacity:1"/><stop offset="0.88" style="stop-color:rgb(158,34,49);stop-opacity:1"/><stop offset="0.95" style="stop-color:rgb(131,32,47);stop-opacity:1"/><stop offset="1" style="stop-color:rgb(109,30,45);stop-opacity:1"/></radialGradient>
    </defs>
</svg>
